<svg width="2614" height="698" xmlns="http://www.w3.org/2000/svg" xmlns:xlink="http://www.w3.org/1999/xlink" xml:space="preserve" overflow="hidden"><defs><clipPath id="clip0"><rect x="3155" y="1054" width="2614" height="698"/></clipPath></defs><g clip-path="url(#clip0)" transform="translate(-3155 -1054)"><path d="M4853.31 1054C4943.27 1054 5021.37 1086.5 5087.62 1151.49 5153.87 1216.49 5187 1298.79 5187 1398.41 5187 1491.35 5155.39 1571.68 5092.18 1639.41 5028.97 1707.14 4952.08 1741 4861.51 1741 4767.3 1741 4687.83 1707.59 4623.1 1640.77 4558.37 1573.96 4526 1494.38 4526 1402.06 4526 1351.64 4535.12 1304.41 4553.35 1260.37 4571.59 1216.33 4595.9 1179.43 4626.29 1149.67 4656.68 1119.91 4691.63 1096.52 4731.14 1079.51 4770.65 1062.5 4811.37 1054 4853.31 1054ZM4856.96 1215.27C4813.19 1215.27 4773.99 1232.13 4739.34 1265.84 4704.7 1299.55 4687.38 1343.74 4687.38 1398.41 4687.38 1451.86 4704.85 1495.45 4739.8 1529.16 4774.75 1562.87 4813.5 1579.73 4856.04 1579.73 4899.81 1579.73 4939.01 1563.33 4973.66 1530.53 5008.3 1497.73 5025.62 1453.38 5025.62 1397.5 5025.62 1342.83 5008.15 1298.79 4973.2 1265.38 4938.25 1231.98 4899.5 1215.27 4856.96 1215.27Z" fill="#5ADB7F" fill-rule="evenodd"/><path d="M4255.99 1056C4284.53 1056 4313.53 1060.4 4342.99 1069.2 4372.44 1078.01 4394.76 1086.96 4409.94 1096.07L4431.81 1108.82C4442.74 1115.5 4451.09 1121.11 4456.86 1125.67 4462.63 1130.22 4468.09 1136.44 4473.26 1144.33 4478.42 1152.23 4481 1160.73 4481 1169.83 4481 1185.01 4474.62 1201.4 4461.87 1219.01 4438.18 1251.79 4416.93 1268.19 4398.1 1268.19 4387.17 1268.19 4371.68 1261.51 4351.64 1248.15 4326.14 1227.51 4292.13 1217.19 4249.61 1217.19 4230.79 1217.19 4211.35 1220.68 4191.31 1227.66 4171.27 1234.64 4151.99 1244.81 4133.46 1258.17 4114.94 1271.52 4099.61 1290.34 4087.46 1314.63 4075.31 1338.91 4069.24 1366.23 4069.24 1396.59 4069.24 1427.55 4075.31 1455.18 4087.46 1479.46 4099.61 1503.74 4115.09 1522.72 4133.92 1536.38 4152.75 1550.04 4172.18 1560.21 4192.22 1566.88 4212.26 1573.56 4231.39 1576.9 4249.61 1576.9 4268.44 1576.9 4286.2 1574.47 4302.91 1569.62 4319.61 1564.76 4331.6 1559.9 4338.89 1555.05L4349.82 1546.85 4355.29 1543.21C4375.93 1531.06 4390.51 1524.99 4399.01 1524.99 4417.84 1524.99 4438.18 1541.99 4460.05 1575.99 4473.41 1597.24 4480.09 1614.54 4480.09 1627.9 4480.09 1640.04 4475.99 1650.36 4467.79 1658.86 4459.59 1667.36 4447.29 1676.47 4430.9 1686.18 4425.43 1689.82 4417.69 1694.68 4407.67 1700.75 4397.65 1706.82 4377.15 1714.72 4346.18 1724.43 4315.2 1734.14 4284.23 1739 4253.26 1739 4226.54 1739 4198.45 1735.21 4168.99 1727.62 4139.54 1720.03 4109.17 1707.28 4077.9 1689.37 4046.62 1671.46 4018.53 1649.6 3993.63 1623.8 3968.73 1598 3948.23 1564.91 3932.14 1524.54 3916.05 1484.17 3908 1440 3908 1392.04 3908 1345.29 3915.9 1302.64 3931.69 1264.09 3947.48 1225.54 3967.67 1193.66 3992.26 1168.47 4016.86 1143.27 4044.95 1122.02 4076.53 1104.72 4108.11 1087.42 4138.93 1074.97 4168.99 1067.38 4199.05 1059.79 4228.05 1056 4255.99 1056Z" fill="#5ADB7F" fill-rule="evenodd"/><path d="M5325.97 1062 5522.47 1062C5547.94 1062 5574.17 1067.02 5601.16 1077.05 5628.14 1087.08 5653.77 1101.52 5678.03 1120.37 5702.29 1139.22 5722.3 1164.76 5738.07 1196.98 5753.84 1229.21 5761.72 1265.08 5761.72 1304.6 5761.72 1373.31 5738.98 1429.86 5693.49 1474.24 5706.84 1506.47 5727.46 1554.2 5755.35 1617.43 5764.45 1639.32 5769 1655.13 5769 1664.86 5769 1687.97 5750.2 1707.42 5712.6 1723.23 5693.19 1731.74 5676.81 1736 5663.47 1736 5653.16 1736 5644.22 1733.11 5636.64 1727.34 5629.05 1721.56 5623.6 1715.63 5620.26 1709.55 5616.92 1703.47 5612.53 1694.05 5607.07 1681.28 5593.73 1650.88 5574.32 1605.27 5548.85 1544.47L5520.65 1546.29 5406.02 1546.29 5406.02 1649.36C5406.02 1663.34 5405.57 1673.83 5404.66 1680.82 5403.75 1687.81 5400.87 1695.87 5396.01 1704.99 5391.16 1714.11 5382.97 1720.5 5371.45 1724.14 5359.93 1727.79 5344.46 1729.62 5325.06 1729.62 5309.29 1729.62 5296.25 1728.1 5285.94 1725.06 5275.63 1722.02 5267.74 1718.37 5262.29 1714.11 5256.83 1709.85 5252.73 1703.62 5250 1695.41 5247.27 1687.21 5245.76 1680.21 5245.46 1674.44 5245.15 1668.66 5245 1660 5245 1648.44L5245 1142.26C5245 1128.27 5245.46 1117.79 5246.36 1110.79 5247.27 1103.8 5250.15 1095.75 5255.01 1086.62 5259.86 1077.5 5268.05 1071.12 5279.57 1067.47 5291.09 1063.82 5306.56 1062 5325.97 1062ZM5406.02 1223.43 5406.02 1384.86 5522.47 1384.86C5540.05 1384.86 5557.64 1378.18 5575.23 1364.8 5592.82 1351.42 5601.61 1331.05 5601.61 1303.69 5601.61 1277.55 5592.82 1257.63 5575.23 1243.95 5557.64 1230.27 5539.45 1223.43 5520.65 1223.43L5406.02 1223.43Z" fill="#5ADB7F" fill-rule="evenodd"/><path d="M3219 1403C3219 1246.15 3346.37 1119 3503.5 1119 3660.62 1119 3788 1246.15 3788 1403 3788 1559.85 3660.62 1687 3503.5 1687 3346.37 1687 3219 1559.85 3219 1403Z" fill="#0D3334" fill-rule="evenodd"/><path d="M3503.48 1130.49C3353.14 1130.49 3231.26 1252.41 3231.26 1402.8 3231.26 1421.6 3233.17 1439.95 3236.79 1457.68L3238.46 1464.17 3243.1 1461.5C3300.46 1429.23 3359.18 1402.02 3424.97 1401.14 3443.77 1400.9 3463.15 1402.8 3483.23 1407.35 3513.35 1478.28 3487.08 1564.42 3455.25 1647.97L3447.01 1669.16 3448.62 1669.58C3466.34 1673.2 3484.69 1675.11 3503.48 1675.11 3653.82 1675.11 3775.7 1553.19 3775.7 1402.8 3775.7 1365.2 3768.08 1329.39 3754.3 1296.81L3749.59 1287.01 3723.89 1308.67C3669.54 1352.38 3609.96 1385.91 3532.73 1385.18 3488.28 1322.22 3495.73 1232.48 3509.15 1144.08L3511.28 1130.69ZM3503.48 1054.42C3509.49 1054.42 3515.46 1054.57 3521.4 1054.87L3539.08 1056.22 3539.09 1056.22 3539.14 1056.22 3556.52 1058.43 3557.66 1058.64 3558.68 1058.77 3563.7 1059.72 3573.67 1061.5 3575.95 1062.02 3577.91 1062.39 3582.96 1063.64 3590.52 1065.39 3593.91 1066.35 3596.75 1067.05 3601.16 1068.41 3607.04 1070.08 3611.56 1071.61 3615.18 1072.72 3618.75 1074.04 3623.22 1075.56 3628.89 1077.79 3633.15 1079.37 3635.82 1080.53 3639.04 1081.8 3646 1084.95 3650.65 1086.96 3652.4 1087.84 3654.47 1088.77 3663.25 1093.27 3667.63 1095.47 3668.48 1095.96 3669.48 1096.47C3679.35 1101.83 3688.93 1107.66 3698.2 1113.92L3698.79 1114.36 3699.93 1115.1C3705.12 1118.65 3710.21 1122.34 3715.19 1126.16L3722.69 1132.24 3725.01 1133.97 3726.48 1135.31 3729.81 1138.01C3734.57 1142.09 3739.23 1146.29 3743.76 1150.62L3747.92 1154.8 3749.74 1156.46 3751.61 1158.52 3757.02 1163.96C3761.31 1168.52 3765.49 1173.2 3769.54 1177.99L3771.28 1180.16 3772.22 1181.2 3773.81 1183.33 3781.3 1192.69 3792.26 1208.01 3792.27 1208.02C3829.82 1263.62 3851.75 1330.65 3851.75 1402.8 3851.75 1595.21 3695.82 1751.18 3503.48 1751.18 3473.43 1751.18 3444.26 1747.38 3416.44 1740.22L3399.93 1735.53 3399.92 1735.52 3399.84 1735.5 3383.73 1730.04 3381.47 1729.15 3379.74 1728.56 3375.79 1726.91 3367.92 1723.81 3363.29 1721.71 3360.15 1720.41 3357.1 1718.91 3352.49 1716.83 3344.98 1712.98 3341.19 1711.13 3339.61 1710.23 3337.47 1709.14 3322.92 1700.77 3322.89 1700.75 3322.86 1700.73 3308.76 1691.69 3307.54 1690.77 3305.3 1689.32C3299.56 1685.34 3293.95 1681.19 3288.46 1676.88L3284.18 1673.3 3281.95 1671.63 3279.3 1669.22 3272.42 1663.47C3262 1654.22 3252.14 1644.36 3242.89 1633.94L3237.15 1627.06 3234.74 1624.41 3233.07 1622.18 3229.49 1617.89C3225.18 1612.4 3221.04 1606.79 3217.06 1601.05L3215.61 1598.81 3214.69 1597.59 3205.63 1583.45 3205.63 1583.45 3205.63 1583.45 3197.25 1568.86 3196.15 1566.72 3195.26 1565.15 3193.41 1561.37 3189.56 1553.84 3187.47 1549.22 3185.98 1546.17 3184.68 1543.05 3182.58 1538.41 3179.47 1530.52 3177.83 1526.58 3177.24 1524.86 3176.34 1522.59 3170.87 1506.41 3170.87 1506.4 3170.87 1506.4 3166.18 1489.87C3159.02 1462.04 3155.21 1432.87 3155.21 1402.8 3155.21 1210.4 3311.14 1054.42 3503.48 1054.42Z" fill="#5ADB7F" fill-rule="evenodd"/></g></svg>